<svg xmlns="http://www.w3.org/2000/svg" xmlns:xlink="http://www.w3.org/1999/xlink" version="1.1" id="Layer_1" x="0px" y="0px" viewBox="0 0 100 100" enable-background="new 0 0 100 100" xml:space="preserve" height="100px" width="100px">
<g>
	<path d="M89.037,15.643H54.775l6.938-8.211c0.5-0.592,0.426-1.476-0.166-1.976s-1.476-0.426-1.976,0.166l-7.325,8.668L40.451,5.407   c-0.619-0.467-1.498-0.342-1.964,0.277c-0.466,0.618-0.342,1.498,0.277,1.964l10.617,7.996H11.212c-3.293,0-5.963,2.67-5.963,5.963   v67.307c0,3.293,2.67,5.963,5.963,5.963h77.825c3.293,0,5.963-2.67,5.963-5.963V21.606C95,18.313,92.33,15.643,89.037,15.643z    M92.195,88.913c0,1.741-1.417,3.158-3.158,3.158H11.212c-1.741,0-3.158-1.417-3.158-3.158V21.606c0-1.741,1.417-3.158,3.158-3.158   h77.825c1.741,0,3.158,1.417,3.158,3.158V88.913z"/>
	<path d="M79.856,27.096H20.314c-2.199,0-3.981,1.782-3.981,3.981v43.224c0,2.199,1.782,3.981,3.981,3.981h59.542   c2.199,0,3.981-1.782,3.981-3.981V31.077C83.837,28.878,82.055,27.096,79.856,27.096z"/>
	<circle cx="81.149" cy="85.176" r="2.688"/>
	<circle cx="71.978" cy="85.176" r="2.688"/>
</g>
</svg>